<?xml version="1.0" encoding="utf-8"?>
<svg xmlns="http://www.w3.org/2000/svg" xmlns:xlink="http://www.w3.org/1999/xlink" x="0px" y="0px" viewBox="0 0 256 170">
<rect y="28" width="256" height="30"/>
<rect y="115" width="256" height="30"/>
<polygon fill="none" points="52.83,64.5 56.83,78.57 71.02,75 60.83,85.5 71.02,96 56.83,92.43 52.83,106.5 48.83,92.43 34.65,96 
	44.83,85.5 34.65,75 48.83,78.57 "/>
<polygon fill="none" points="52.83,64.5 56.83,78.57 71.02,75 60.83,85.5 71.02,96 56.83,92.43 52.83,106.5 48.83,92.43 34.65,96 
	44.83,85.5 34.65,75 48.83,78.57 "/>
<polygon points="52.83,64.5 56.83,78.57 71.02,75 60.83,85.5 71.02,96 56.83,92.43 52.83,106.5 48.83,92.43 34.65,96 44.83,85.5 
	34.65,75 48.83,78.57 "/>
<polygon points="102.83,64.5 106.83,78.57 121.02,75 110.83,85.5 121.02,96 106.83,92.43 102.83,106.5 98.83,92.43 84.65,96 
	94.83,85.5 84.65,75 98.83,78.57 "/>
<polygon points="152.83,64.5 156.83,78.57 171.02,75 160.83,85.5 171.02,96 156.83,92.43 152.83,106.5 148.83,92.43 134.65,96 
	144.83,85.5 134.65,75 148.83,78.57 "/>
<polygon points="202.83,64.5 206.83,78.57 221.02,75 210.83,85.5 221.02,96 206.83,92.43 202.83,106.5 198.83,92.43 184.65,96 
	194.83,85.5 184.65,75 198.83,78.57 "/>
</svg>
